%FSDAX23Y23*%
%MOIN*%
%SFA1B1*%

%IPPOS*%
%ADD10C,0.236220*%
%ADD11C,0.059060*%
%ADD12R,0.059060X0.059060*%
%ADD13R,0.059060X0.059060*%
%ADD14C,0.078740*%
%ADD15R,0.078740X0.078740*%
%ADD16R,0.078740X0.078740*%
%ADD17C,0.060000*%
%LNpcb1-1*%
%LPD*%
G36*
X03735Y01805D02*
X03715Y01785D01*
Y01765*
X03640Y01815*
X03640Y01815*
X03640Y01815*
X03617Y01830*
X03710*
X03735Y01805*
G37*
G36*
X03720Y01920D02*
Y01875D01*
X03715Y01870*
X03630*
X03720Y01920*
G37*
G36*
X03480Y02480D02*
X03535Y02499D01*
Y02420*
X03480Y02420*
Y02480*
G37*
G54D10*
X02345Y04440D03*
X05050Y01725D03*
X02345D03*
X05050Y04440D03*
G54D11*
X02345Y02100D03*
Y03840D03*
X03735Y01845D03*
X03485D03*
X04085D03*
G54D12*
X02345Y02000D03*
Y03740D03*
G54D13*
X03835Y01845D03*
X03385D03*
X04185D03*
G54D14*
X04870Y02645D03*
Y02745D03*
Y02845D03*
Y02945D03*
Y03045D03*
Y03145D03*
Y03245D03*
Y03345D03*
Y03445D03*
Y03545D03*
Y03645D03*
Y03745D03*
Y03845D03*
Y03945D03*
X03870D03*
Y03845D03*
Y03745D03*
Y03645D03*
Y03545D03*
Y03445D03*
Y03345D03*
Y03245D03*
Y03145D03*
Y03045D03*
Y02945D03*
Y02845D03*
Y02745D03*
Y02645D03*
Y02545D03*
X02855Y03135D03*
Y03040D03*
Y02945D03*
Y02850D03*
X03575Y02580D03*
X03485Y03135D03*
Y03040D03*
Y02945D03*
Y02850D03*
G54D15*
X04870Y02545D03*
G54D16*
X03575Y02460D03*
G54D17*
X02793Y02943D02*
X02853D01*
X02855Y02945*
X02345Y02100D02*
Y02495D01*
X02793Y02943*
X03485Y01845D02*
X03735D01*
Y01765D02*
Y01845D01*
X03673Y02576D02*
X03735Y02515D01*
Y01845D02*
Y02515D01*
Y01765D02*
X03770Y01730D01*
X04385*
X04550Y01895*
X02851Y02766D02*
Y02846D01*
X02855Y02850*
X02465Y02380D02*
X02851Y02766D01*
X02345Y02000D02*
X02429D01*
X02465Y02035*
Y02380*
X02455Y03535D02*
Y03804D01*
X02345Y03840D02*
X02419D01*
X02455Y03804*
Y03535D02*
X02855Y03135D01*
X02710Y03040D02*
X02855D01*
X02345Y03405D02*
X02710Y03040D01*
X02345Y03405D02*
Y03740D01*
X04550Y02510D02*
X04685Y02645D01*
X04870*
X04550Y01895D02*
Y02510D01*
X03578Y02576D02*
X03673D01*
X03575Y02580D02*
X03578Y02576D01*
X03565Y02450D02*
X03575Y02460D01*
X03480Y02450D02*
X03565D01*
X03385Y02355D02*
X03480Y02450D01*
X03385Y01845D02*
Y02355D01*
X03835Y01845D02*
X04085D01*
X04185D02*
Y02230D01*
X03870Y02545D02*
X04185Y02230D01*
X03487Y02847D02*
X03867D01*
X03870Y02845*
X03485Y02850D02*
X03487Y02847D01*
X03485Y02945D02*
X03870D01*
X03487Y03042D02*
X03867D01*
X03485Y03040D02*
X03487Y03042D01*
X03867D02*
X03870Y03045D01*
X03485Y03135D02*
X03854D01*
X03864Y03145*
X03870*
M02*